<?xml version="1.0" encoding="utf-8"?>
<!-- Generator: Adobe Illustrator 16.0.0, SVG Export Plug-In . SVG Version: 6.00 Build 0)  -->
<!DOCTYPE svg PUBLIC "-//W3C//DTD SVG 1.1//EN" "http://www.w3.org/Graphics/SVG/1.1/DTD/svg11.dtd">
<svg version="1.1" id="Layer_1" xmlns="http://www.w3.org/2000/svg" xmlns:xlink="http://www.w3.org/1999/xlink" x="0px" y="0px"
	 width="28px" height="36px" viewBox="0 0 512 512" enable-background="new 0 0 512 512" xml:space="preserve">
<path fill="#FFFFFF" d="M512.508,21.333c0-12.8-8.533-21.333-21.332-21.333H21.842C9.042,0,0.508,8.534,0.508,21.333V64
	c0,12.8,8.533,21.333,21.333,21.333h469.334c12.799,0,21.332-8.533,21.332-21.333V21.333z"/>
<path fill="#FFFFFF" d="M512.508,162c0-12.8-8.533-21.333-21.332-21.333H21.842c-12.8,0-21.333,8.533-21.333,21.333v42.667
	C0.508,217.466,9.042,226,21.842,226h469.334c12.799,0,21.332-8.533,21.332-21.332V162z"/>
<path fill="#FFFFFF" d="M512.508,299.666c0-12.799-8.533-21.332-21.332-21.332H21.842c-12.8,0-21.333,8.533-21.333,21.332v42.668
	c0,12.799,8.533,21.332,21.333,21.332h469.334c12.799,0,21.332-8.533,21.332-21.332V299.666z"/>
<g>
	<path fill="#FFFFFF" d="M65.849,513l-28.649-93.355h-0.732c1.03,18.992,1.546,31.661,1.546,38.01V513H15.468V394.006h34.347
		l28.161,90.995h0.488l29.871-90.995h34.347V513H119.16v-56.322c0-2.658,0.041-5.725,0.122-9.197s0.448-12.697,1.099-27.674h-0.732
		L88.964,513H65.849z"/>
	<path fill="#FFFFFF" d="M241.166,513h-68.532V394.006h68.532v20.674h-43.301v26.126h40.289v20.674h-40.289v30.685h43.301V513z"/>
	<path fill="#FFFFFF" d="M371.554,513h-32.067l-51.766-90.019h-0.732c1.03,15.899,1.547,27.239,1.547,34.021V513h-22.546V394.006
		h31.824l51.684,89.124h0.569c-0.813-15.465-1.221-26.397-1.221-32.801v-56.323h22.708V513z"/>
	<path fill="#FFFFFF" d="M498.362,394.006v76.996c0,8.79-1.968,16.496-5.901,23.115c-3.935,6.621-9.618,11.693-17.052,15.22
		c-7.435,3.528-16.225,5.291-26.37,5.291c-15.302,0-27.185-3.92-35.649-11.761s-12.697-18.57-12.697-32.19v-76.671h25.149v72.846
		c0,9.17,1.845,15.898,5.535,20.185c3.689,4.287,9.794,6.43,18.313,6.43c8.248,0,14.229-2.156,17.947-6.471
		c3.716-4.313,5.575-11.081,5.575-20.307v-72.683H498.362z"/>
</g>
</svg>
